<svg width="387" height="257" viewBox="0 0 387 257" fill="none" xmlns="http://www.w3.org/2000/svg">
<g filter="url(#filter0_d_439_1115)">
<path opacity="0.5" d="M78.0097 46.9692L46.1415 156.129C40.9801 173.808 51.8326 192.129 70.3812 197.048L259.733 247.27C278.281 252.19 297.502 241.845 302.664 224.166L334.532 115.006C339.693 97.3266 328.841 79.0062 310.292 74.0865L120.941 23.8651C102.392 18.9454 83.1711 29.2895 78.0097 46.9692Z" fill="#AAAAAA"/>
<path opacity="0.12" d="M325.148 52.502H129.921C97.9708 52.502 72.0697 77.1897 72.0697 107.644C72.0697 138.097 97.9708 162.785 129.921 162.785H325.148C357.099 162.785 383 138.097 383 107.644C383 77.1897 357.099 52.502 325.148 52.502Z" fill="#AAAAAA"/>
<path d="M30.8472 212.309C34.0654 212.309 36.6742 209.823 36.6742 206.755C36.6742 203.688 34.0654 201.201 30.8472 201.201C27.6291 201.201 25.0203 203.688 25.0203 206.755C25.0203 209.823 27.6291 212.309 30.8472 212.309Z" fill="#9FE791"/>
<path opacity="0.12" d="M247.796 110.11H61.8518C29.9011 110.11 4 134.798 4 165.252C4 195.706 29.9011 220.393 61.8518 220.393H247.796C279.746 220.393 305.647 195.706 305.647 165.252C305.647 134.798 279.746 110.11 247.796 110.11Z" fill="#AAAAAA"/>
<path d="M33.2848 58.9947C36.5029 58.9947 39.1117 56.5081 39.1117 53.4408C39.1117 50.3734 36.5029 47.8868 33.2848 47.8868C30.0667 47.8868 27.4579 50.3734 27.4579 53.4408C27.4579 56.5081 30.0667 58.9947 33.2848 58.9947Z" fill="#2BC3F7"/>
<g opacity="0.15">
<path d="M362.163 212.596L351.094 221.332C350.156 222.228 349.629 223.441 349.629 224.706C349.629 225.971 350.156 227.185 351.094 228.08C352.047 228.948 353.315 229.432 354.633 229.432C355.952 229.432 357.22 228.948 358.173 228.08L369.243 219.343C370.181 218.448 370.707 217.235 370.707 215.969C370.707 214.704 370.181 213.491 369.243 212.596C368.289 211.728 367.021 211.244 365.703 211.244C364.385 211.244 363.117 211.728 362.163 212.596Z" fill="#32CAF8"/>
<path d="M368.308 222.239L359.141 211.688C358.202 210.794 356.929 210.292 355.602 210.292C354.275 210.292 353.001 210.794 352.062 211.688C351.152 212.597 350.644 213.806 350.644 215.062C350.644 216.319 351.152 217.527 352.062 218.436L361.228 228.987C362.168 229.881 363.441 230.383 364.768 230.383C366.095 230.383 367.368 229.881 368.308 228.987C369.218 228.078 369.726 226.87 369.726 225.613C369.726 224.356 369.218 223.148 368.308 222.239Z" fill="#32CAF8"/>
</g>
<path d="M315.264 66.0129L315.414 75.1315C315.447 75.3737 315.57 75.5963 315.762 75.7576C315.955 75.919 316.202 76.008 316.458 76.008C316.714 76.008 316.961 75.919 317.153 75.7576C317.345 75.5963 317.469 75.3737 317.501 75.1315L317.351 66.0129C317.319 65.7707 317.195 65.5481 317.003 65.3867C316.811 65.2254 316.564 65.1364 316.308 65.1364C316.052 65.1364 315.804 65.2254 315.612 65.3867C315.42 65.5481 315.296 65.7707 315.264 66.0129Z" fill="white"/>
<path d="M308.603 50.0034H316.45L315.415 49.0167V55.812C315.447 56.0541 315.57 56.2767 315.763 56.4381C315.955 56.5994 316.202 56.6885 316.458 56.6885C316.714 56.6885 316.961 56.5994 317.153 56.4381C317.346 56.2767 317.469 56.0541 317.502 55.812V49.0486C317.497 48.7882 317.387 48.5396 317.194 48.3554C317 48.1713 316.74 48.066 316.466 48.0619H308.619C308.365 48.0926 308.132 48.2105 307.962 48.3936C307.793 48.5768 307.7 48.8124 307.7 49.0565C307.7 49.3006 307.793 49.5363 307.962 49.7194C308.132 49.9025 308.365 50.0204 308.619 50.0511L308.603 50.0034Z" fill="white"/>
<path d="M69.66 32.6376L37.7919 141.797C32.6305 159.477 43.483 177.797 62.0316 182.717L251.383 232.938C269.932 237.858 289.153 227.514 294.314 209.834L326.182 100.675C331.344 82.995 320.491 64.6746 301.943 59.755L112.591 9.53351C94.0423 4.61388 74.8215 14.9579 69.66 32.6376Z" fill="#E6F4FF"/>
<path d="M38.6944 160.78L36.6241 156.436L137.568 112.704L138.47 115.171C138.587 115.505 150.741 148.081 175.051 153.667C188.708 156.849 203.885 150.866 220.13 136.034L223.586 139.487C206.022 155.513 189.326 161.846 173.866 158.298C150.758 152.982 138.186 127.329 134.713 119.181L38.6944 160.78Z" fill="#B3C9E8"/>
<path d="M221.552 140.749L225.566 137.893L288.366 218.082L284.352 220.938L221.552 140.749Z" fill="#B3C9E8"/>
<path d="M299.052 60.0769L115.58 11.3963C97.5979 6.62215 83.1559 10.6802 78.3307 18.8758L75.6093 25.3846C78.2138 16.4888 95.01 15.5339 112.992 20.2922L296.448 68.9728C314.429 73.7469 326.885 84.8866 324.297 93.7188L326.901 84.8071C329.573 75.9271 317.034 64.8351 299.052 60.0769Z" fill="white"/>
<path d="M69.8506 32.012L37.9824 141.172C32.821 158.851 43.6735 177.172 62.2221 182.091L251.574 232.313C270.122 237.232 289.343 226.888 294.505 209.209L326.373 100.049C331.534 82.3694 320.682 64.049 302.133 59.1294L112.781 8.9079C94.2328 3.98827 75.012 14.3323 69.8506 32.012Z" stroke="#2E576D" stroke-width="2.6412" stroke-miterlimit="10" stroke-linecap="round"/>
<path d="M38.5942 154.255L136.433 111.479" stroke="#2E576D" stroke-width="2.6412" stroke-miterlimit="10" stroke-linecap="round"/>
<path d="M225.857 135.827L288.935 218.802" stroke="#2E576D" stroke-width="2.6412" stroke-miterlimit="10" stroke-linecap="round"/>
<path d="M75.5926 23.4432L154.264 137.339C158.471 144.105 165.258 149.06 173.208 151.168C181.157 153.277 189.654 152.376 196.923 148.654L327.302 89.3267" stroke="#2E576D" stroke-width="2.6412" stroke-miterlimit="10" stroke-linecap="round"/>
</g>
<defs>
<filter id="filter0_d_439_1115" x="0" y="6.37201" width="387" height="250.123" filterUnits="userSpaceOnUse" color-interpolation-filters="sRGB">
<feFlood flood-opacity="0" result="BackgroundImageFix"/>
<feColorMatrix in="SourceAlpha" type="matrix" values="0 0 0 0 0 0 0 0 0 0 0 0 0 0 0 0 0 0 127 0" result="hardAlpha"/>
<feOffset dy="4"/>
<feGaussianBlur stdDeviation="2"/>
<feComposite in2="hardAlpha" operator="out"/>
<feColorMatrix type="matrix" values="0 0 0 0 0 0 0 0 0 0 0 0 0 0 0 0 0 0 0.25 0"/>
<feBlend mode="normal" in2="BackgroundImageFix" result="effect1_dropShadow_439_1115"/>
<feBlend mode="normal" in="SourceGraphic" in2="effect1_dropShadow_439_1115" result="shape"/>
</filter>
</defs>
</svg>
