<svg width="549" height="770" viewBox="0 0 549 770" fill="none" xmlns="http://www.w3.org/2000/svg">
<path opacity="0.4" d="M273.409 672.983C424.409 672.983 546.819 551.454 546.819 401.54C546.819 251.627 424.409 130.098 273.409 130.098C122.41 130.098 0 251.627 0 401.54C0 551.454 122.41 672.983 273.409 672.983Z" fill="#B3E8FF"/>
<path opacity="0.4" d="M279.581 620.064C403.824 620.064 504.542 520.069 504.542 396.72C504.542 273.372 403.824 173.378 279.581 173.378C155.338 173.378 54.6195 273.372 54.6195 396.72C54.6195 520.069 155.338 620.064 279.581 620.064Z" fill="#B3E8FF"/>
<path opacity="0.4" d="M32.426 188.217C43.5119 188.217 52.4988 179.294 52.4988 168.288C52.4988 157.282 43.5119 148.36 32.426 148.36C21.3401 148.36 12.3533 157.282 12.3533 168.288C12.3533 179.294 21.3401 188.217 32.426 188.217Z" fill="#B3E8FF"/>
<path opacity="0.4" d="M34.9891 125.797C41.2398 125.797 46.307 120.766 46.307 114.56C46.307 108.355 41.2398 103.324 34.9891 103.324C28.7384 103.324 23.6711 108.355 23.6711 114.56C23.6711 120.766 28.7384 125.797 34.9891 125.797Z" fill="#B3E8FF"/>
<path opacity="0.5" d="M391.464 93.285H155.365C123.645 93.285 97.9312 118.814 97.9312 150.306V712.979C97.9312 744.471 123.645 770 155.365 770H391.464C423.183 770 448.898 744.471 448.898 712.979V150.306C448.898 118.814 423.183 93.285 391.464 93.285Z" fill="#C2CED3"/>
<path d="M395.354 75.4323H150.671C122.26 75.4323 99.2279 98.2986 99.2279 126.506V694.518C99.2279 722.725 122.26 745.591 150.671 745.591H395.354C423.765 745.591 446.797 722.725 446.797 694.518V126.506C446.797 98.2986 423.765 75.4323 395.354 75.4323Z" fill="#29C6FF"/>
<path d="M395.022 77.8373H148.902C141.036 77.8253 133.271 79.5931 126.197 83.0064C119.122 86.4197 112.924 91.3887 108.073 97.5361C117.162 90.5352 128.342 86.7428 139.846 86.7586H385.976C399.66 86.7189 412.8 92.0771 422.506 101.655C432.212 111.233 437.688 124.246 437.73 137.832V705.854C437.739 717.227 433.89 728.272 426.805 737.209C433.015 732.457 438.045 726.355 441.508 719.371C444.97 712.387 446.773 704.707 446.777 696.923V128.901C446.756 122.174 445.4 115.517 442.788 109.31C440.176 103.104 436.357 97.4688 431.552 92.7272C426.746 87.9855 421.046 84.23 414.778 81.6752C408.511 79.1204 401.797 77.8163 395.022 77.8373V77.8373Z" fill="#22A6FF"/>
<path d="M395.354 749.583H150.671C135.971 749.567 121.878 743.764 111.481 733.448C101.083 723.131 95.2312 709.142 95.2073 694.548V126.505C95.2232 111.906 101.072 97.9094 111.47 87.5862C121.868 77.263 135.966 71.4564 150.671 71.4406H395.354C410.059 71.4564 424.157 77.263 434.555 87.5862C444.953 97.9094 450.801 111.906 450.817 126.505V254.817H442.776V126.505C442.763 114.023 437.762 102.055 428.872 93.2283C419.981 84.4017 407.927 79.4371 395.354 79.4239H150.671C138.098 79.4371 126.044 84.4017 117.153 93.2283C108.262 102.055 103.262 114.023 103.248 126.505V694.548C103.264 707.029 108.266 718.994 117.156 727.818C126.047 736.643 138.1 741.606 150.671 741.619H395.354C407.925 741.606 419.978 736.643 428.868 727.818C437.759 718.994 442.76 707.029 442.776 694.548V316.768H450.817V694.548C450.793 709.142 444.941 723.131 434.544 733.448C424.147 743.764 410.053 749.567 395.354 749.583V749.583Z" fill="#213346"/>
<path d="M442.776 298.436H450.817V306.639H442.776V298.436Z" fill="#213346"/>
<path d="M442.776 267.92H450.817V290.942H442.776V267.92Z" fill="#213346"/>
<path d="M398.399 100.779H147.616C134.048 100.779 123.05 111.699 123.05 125.168V691.873C123.05 705.343 134.048 716.262 147.616 716.262H398.399C411.966 716.262 422.965 705.343 422.965 691.873V125.168C422.965 111.699 411.966 100.779 398.399 100.779Z" fill="white"/>
<path d="M397.032 102.186H146.198C141.732 102.182 137.348 103.388 133.52 105.674C129.693 107.96 126.566 111.239 124.477 115.159C128.004 113.306 131.935 112.34 135.926 112.345H386.709C393.225 112.345 399.473 114.915 404.08 119.488C408.687 124.062 411.275 130.266 411.275 136.734V703.529C411.281 707.494 410.307 711.4 408.441 714.905C412.39 712.83 415.694 709.724 417.996 705.922C420.299 702.12 421.513 697.767 421.507 693.33V126.575C421.508 120.123 418.932 113.933 414.344 109.361C409.757 104.79 403.532 102.21 397.032 102.186V102.186Z" fill="#DCE1FF"/>
<path d="M398.399 719.256H147.616C140.303 719.248 133.292 716.361 128.122 711.227C122.951 706.094 120.042 699.133 120.034 691.873V125.168C120.045 117.91 122.955 110.952 128.125 105.821C133.296 100.69 140.305 97.8034 147.616 97.7955H398.399C405.712 97.8034 412.722 100.691 417.893 105.824C423.064 110.958 425.972 117.918 425.98 125.178V691.873C425.972 699.133 423.064 706.094 417.893 711.227C412.722 716.361 405.712 719.248 398.399 719.256V719.256ZM147.616 103.783C141.903 103.791 136.426 106.048 132.386 110.058C128.346 114.069 126.073 119.506 126.065 125.178V691.873C126.073 697.545 128.346 702.983 132.386 706.993C136.426 711.004 141.903 713.261 147.616 713.269H398.399C404.113 713.263 409.591 711.008 413.632 706.996C417.672 702.985 419.944 697.546 419.95 691.873V125.168C419.942 119.497 417.668 114.061 413.628 110.052C409.588 106.043 404.111 103.788 398.399 103.783H147.616Z" fill="#213346"/>
<path d="M203.12 37.7511C206.606 37.7511 209.432 34.9454 209.432 31.4842C209.432 28.0231 206.606 25.2173 203.12 25.2173C199.633 25.2173 196.807 28.0231 196.807 31.4842C196.807 34.9454 199.633 37.7511 203.12 37.7511Z" fill="#FFC62A"/>
<path d="M420 47.2213C428.754 47.2213 435.851 40.1756 435.851 31.4842C435.851 22.7929 428.754 15.7471 420 15.7471C411.245 15.7471 404.149 22.7929 404.149 31.4842C404.149 40.1756 411.245 47.2213 420 47.2213Z" fill="#B3E8FF"/>
<path d="M445.4 77.8373C448.886 77.8373 451.712 75.0315 451.712 71.5704C451.712 68.1093 448.886 65.3035 445.4 65.3035C441.914 65.3035 439.087 68.1093 439.087 71.5704C439.087 75.0315 441.914 77.8373 445.4 77.8373Z" fill="#FFC62A"/>
<path d="M461.251 22.004C464.737 22.004 467.563 19.1982 467.563 15.7371C467.563 12.276 464.737 9.47021 461.251 9.47021C457.765 9.47021 454.939 12.276 454.939 15.7371C454.939 19.1982 457.765 22.004 461.251 22.004Z" fill="#FF28B3"/>
<path d="M157.074 55.9431C165.828 55.9431 172.925 48.8973 172.925 40.206C172.925 31.5146 165.828 24.4689 157.074 24.4689C148.32 24.4689 141.223 31.5146 141.223 40.206C141.223 48.8973 148.32 55.9431 157.074 55.9431Z" fill="#B3E8FF"/>
<path d="M172.935 12.5338C176.421 12.5338 179.248 9.72801 179.248 6.2669C179.248 2.80579 176.421 0 172.935 0C169.449 0 166.623 2.80579 166.623 6.2669C166.623 9.72801 169.449 12.5338 172.935 12.5338Z" fill="#FF28B3"/>
<path d="M111.089 237.833C110.289 237.833 109.522 237.517 108.956 236.956C108.391 236.394 108.073 235.633 108.073 234.839V170.743C108.073 169.949 108.391 169.188 108.956 168.626C109.522 168.065 110.289 167.749 111.089 167.749C111.888 167.749 112.655 168.065 113.221 168.626C113.786 169.188 114.104 169.949 114.104 170.743V234.839C114.104 235.633 113.786 236.394 113.221 236.956C112.655 237.517 111.888 237.833 111.089 237.833V237.833Z" fill="white"/>
<path d="M111.089 260.036C110.289 260.036 109.522 259.721 108.956 259.159C108.391 258.598 108.073 257.836 108.073 257.042V250.825C108.073 250.031 108.391 249.27 108.956 248.709C109.522 248.147 110.289 247.832 111.089 247.832C111.888 247.832 112.655 248.147 113.221 248.709C113.786 249.27 114.104 250.031 114.104 250.825V257.042C114.104 257.836 113.786 258.598 113.221 259.159C112.655 259.721 111.888 260.036 111.089 260.036V260.036Z" fill="white"/>
<path d="M191.048 113.183V121.656C191.048 124.243 191.561 126.804 192.558 129.194C193.555 131.584 195.017 133.756 196.859 135.585C198.702 137.414 200.889 138.865 203.296 139.855C205.704 140.845 208.284 141.354 210.889 141.354H348.001C350.61 141.36 353.195 140.854 355.607 139.866C358.019 138.879 360.211 137.429 362.057 135.599C363.904 133.769 365.369 131.596 366.369 129.203C367.368 126.811 367.883 124.246 367.883 121.656V113.183" fill="#DCE1FF"/>
<path d="M189.58 95.2807V104.781C189.58 117.035 198.466 126.974 209.422 126.974H346.544C357.5 126.974 366.385 116.995 366.385 104.781V95.2807" fill="#29C6FF"/>
<path d="M347.458 129.01H210.337C204.276 129.005 198.466 126.612 194.18 122.358C189.895 118.103 187.485 112.334 187.48 106.318V97.8553H193.51V106.318C193.516 110.746 195.29 114.992 198.445 118.124C201.599 121.256 205.876 123.017 210.337 123.023H347.458C351.919 123.017 356.196 121.256 359.35 118.124C362.505 114.992 364.279 110.746 364.285 106.318V97.8553H370.315V106.318C370.31 112.334 367.9 118.103 363.615 122.358C359.33 126.612 353.519 129.005 347.458 129.01V129.01Z" fill="#213346"/>
<path d="M186.233 448.393H356.826V451.057C356.826 454.625 355.399 458.046 352.858 460.569C350.317 463.092 346.871 464.509 343.277 464.509H199.783C196.189 464.509 192.743 463.092 190.202 460.569C187.661 458.046 186.233 454.625 186.233 451.057V448.373V448.393Z" fill="#DCE1FF"/>
<path d="M346.694 331.617H192.988C187.392 331.617 182.856 336.12 182.856 341.676V440.14C182.856 445.695 187.392 450.199 192.988 450.199H346.694C352.29 450.199 356.826 445.695 356.826 440.14V341.676C356.826 336.12 352.29 331.617 346.694 331.617Z" fill="#FFC826"/>
<path d="M270.002 416.948C266.919 416.959 263.863 416.364 261.013 415.196C258.163 414.028 255.574 412.31 253.397 410.142L196.566 353.72L201.029 349.27L257.86 405.692C261.117 408.925 265.439 407.688 270.042 407.688C274.646 407.688 278.968 408.905 282.225 405.692L339.015 349.27L343.438 353.66L286.607 410.142C284.43 412.31 281.841 414.028 278.991 415.196C276.141 416.364 273.086 416.959 270.002 416.948Z" fill="#FF9905"/>
<path opacity="0.6" d="M195.31 389.316C194.243 389.316 193.221 388.895 192.467 388.147C191.713 387.398 191.289 386.383 191.289 385.324V369.068C191.289 368.01 191.713 366.994 192.467 366.246C193.221 365.497 194.243 365.077 195.31 365.077C196.376 365.077 197.399 365.497 198.153 366.246C198.907 366.994 199.33 368.01 199.33 369.068V385.324C199.33 386.383 198.907 387.398 198.153 388.147C197.399 388.895 196.376 389.316 195.31 389.316Z" fill="white"/>
<path opacity="0.6" d="M195.31 403.377C194.243 403.377 193.221 402.956 192.467 402.207C191.713 401.459 191.289 400.444 191.289 399.385V398.537C191.289 397.478 191.713 396.463 192.467 395.714C193.221 394.966 194.243 394.545 195.31 394.545C196.376 394.545 197.399 394.966 198.153 395.714C198.907 396.463 199.33 397.478 199.33 398.537V399.385C199.33 400.444 198.907 401.459 198.153 402.207C197.399 402.956 196.376 403.377 195.31 403.377Z" fill="white"/>
<path d="M270.002 410.741C266.932 410.749 263.891 410.153 261.054 408.987C258.218 407.82 255.642 406.107 253.477 403.946L196.646 347.513L200.908 343.282L257.739 399.704C259.349 401.305 261.26 402.574 263.364 403.441C265.469 404.307 267.724 404.753 270.002 404.753C272.28 404.753 274.535 404.307 276.64 403.441C278.744 402.574 280.655 401.305 282.265 399.704L339.096 343.282L343.357 347.513L286.527 403.946C284.361 406.107 281.786 407.82 278.95 408.987C276.113 410.153 273.072 410.749 270.002 410.741V410.741Z" fill="#213346"/>
<path d="M184.958 441.236L242.85 388.717L246.918 393.137L189.026 445.656L184.958 441.236Z" fill="#213346"/>
<path d="M295.682 393.107L299.751 388.687L357.643 441.206L353.575 445.627L295.682 393.107Z" fill="#213346"/>
<path d="M162.059 502.569H418.562V518.705H162.059V502.569Z" fill="#DCE1FF"/>
<path d="M162.059 544.302H418.562V560.438H162.059V544.302Z" fill="#DCE1FF"/>
<path d="M162.059 600.734H418.562V616.87H162.059V600.734Z" fill="#DCE1FF"/>
<path d="M159.044 571.934H544.979V604.905H159.044V571.934Z" fill="#EDE9E4"/>
<path d="M159.044 528.645H500.11V549.711H159.044V528.645Z" fill="#EDE9E4"/>
<path d="M159.044 485.365H476.539V506.431H159.044V485.365Z" fill="#EDE9E4"/>
<path d="M159.044 487.82H476.539V492.929H159.044V487.82Z" fill="white"/>
<path d="M155.616 532.327H500.11V536.059H155.616V532.327Z" fill="white"/>
<path d="M159.044 571.934H546.829V582.272H159.044V571.934Z" fill="white"/>
<path d="M480.55 511.64H155.023V481.374H480.55V511.64ZM163.065 503.657H472.508V489.357H163.065V503.657Z" fill="#213346"/>
<path d="M504.13 554.92H155.023V524.653H504.13V554.92ZM163.065 546.936H496.089V532.636H163.065V546.936Z" fill="#213346"/>
<path d="M549 610.793H154.983V567.942H549V610.793ZM163.024 602.809H540.959V575.926H163.024V602.809Z" fill="#213346"/>
<path d="M162.059 237.743H418.562V253.879H162.059V237.743Z" fill="#DCE1FF"/>
<path d="M159.044 220.529H476.539V241.595H159.044V220.529Z" fill="#EDE9E4"/>
<path d="M159.044 222.994H476.539V228.103H159.044V222.994Z" fill="white"/>
<path d="M480.55 246.804H155.023V216.547H480.55V246.804ZM163.065 238.821H472.508V224.531H163.065V238.821Z" fill="#213346"/>
<path d="M301.292 107.625H252.814C251.748 107.625 250.725 107.204 249.971 106.456C249.217 105.707 248.793 104.692 248.793 103.633C248.793 102.575 249.217 101.559 249.971 100.811C250.725 100.062 251.748 99.6416 252.814 99.6416H301.292C302.358 99.6416 303.381 100.062 304.135 100.811C304.889 101.559 305.313 102.575 305.313 103.633C305.313 104.692 304.889 105.707 304.135 106.456C303.381 107.204 302.358 107.625 301.292 107.625Z" fill="#213346"/>
<path d="M318.088 107.625H317.857C316.791 107.625 315.768 107.204 315.014 106.456C314.26 105.707 313.836 104.692 313.836 103.633C313.836 102.575 314.26 101.559 315.014 100.811C315.768 100.062 316.791 99.6416 317.857 99.6416H318.088C319.154 99.6416 320.177 100.062 320.931 100.811C321.685 101.559 322.109 102.575 322.109 103.633C322.109 104.692 321.685 105.707 320.931 106.456C320.177 107.204 319.154 107.625 318.088 107.625Z" fill="#213346"/>
<path d="M343.136 453.182H195.31C191.044 453.182 186.954 451.5 183.938 448.506C180.922 445.512 179.227 441.45 179.227 437.216V344.59C179.227 340.355 180.922 336.294 183.938 333.299C186.954 330.305 191.044 328.623 195.31 328.623H343.136C347.402 328.623 351.492 330.305 354.508 333.299C357.524 336.294 359.219 340.355 359.219 344.59V437.216C359.219 441.45 357.524 445.512 354.508 448.506C351.492 451.5 347.402 453.182 343.136 453.182ZM195.31 334.61C192.644 334.61 190.087 335.662 188.202 337.533C186.317 339.405 185.258 341.943 185.258 344.59V437.216C185.258 439.863 186.317 442.401 188.202 444.272C190.087 446.144 192.644 447.195 195.31 447.195H343.136C345.802 447.195 348.359 446.144 350.244 444.272C352.129 442.401 353.188 439.863 353.188 437.216V344.59C353.188 341.943 352.129 339.405 350.244 337.533C348.359 335.662 345.802 334.61 343.136 334.61H195.31Z" fill="#213346"/>
<path d="M193.058 355.257C207.924 355.257 219.976 343.292 219.976 328.533C219.976 313.774 207.924 301.809 193.058 301.809C178.192 301.809 166.14 313.774 166.14 328.533C166.14 343.292 178.192 355.257 193.058 355.257Z" fill="#FF2457"/>
<path d="M193.058 358.251C187.137 358.253 181.348 356.511 176.424 353.247C171.5 349.982 167.662 345.341 165.395 339.91C163.129 334.479 162.535 328.503 163.69 322.738C164.844 316.972 167.695 311.676 171.882 307.519C176.069 303.362 181.403 300.532 187.211 299.386C193.018 298.239 199.038 298.829 204.508 301.079C209.978 303.33 214.652 307.14 217.941 312.029C221.229 316.917 222.983 322.664 222.981 328.543C222.971 336.419 219.815 343.969 214.205 349.538C208.596 355.107 200.991 358.24 193.058 358.251ZM193.058 304.812C188.33 304.811 183.708 306.201 179.776 308.807C175.844 311.413 172.779 315.119 170.968 319.455C169.157 323.791 168.683 328.562 169.604 333.166C170.525 337.77 172.801 342 176.143 345.319C179.485 348.639 183.744 350.9 188.381 351.817C193.018 352.733 197.825 352.264 202.193 350.468C206.561 348.672 210.295 345.63 212.921 341.728C215.548 337.825 216.95 333.237 216.95 328.543C216.948 322.251 214.43 316.217 209.951 311.766C205.471 307.315 199.396 304.81 193.058 304.803V304.812Z" fill="#213346"/>
<path d="M188.274 321.328C188.262 321.02 188.333 320.714 188.48 320.443C188.626 320.171 188.843 319.943 189.108 319.781L193.008 316.788C193.256 316.574 193.574 316.457 193.903 316.458C194.372 316.457 194.831 316.597 195.219 316.858C195.4 316.955 195.552 317.1 195.658 317.275C195.764 317.45 195.821 317.651 195.822 317.855V339.201C195.821 339.411 195.76 339.616 195.646 339.792C195.533 339.969 195.37 340.11 195.179 340.199C194.713 340.438 194.196 340.562 193.671 340.562C193.147 340.562 192.63 340.438 192.164 340.199C191.975 340.108 191.817 339.966 191.706 339.789C191.596 339.613 191.538 339.409 191.54 339.201V321.677L190.535 322.735C190.406 322.845 190.255 322.926 190.092 322.975C189.929 323.023 189.758 323.036 189.589 323.015C189.421 322.993 189.259 322.937 189.113 322.849C188.968 322.761 188.843 322.644 188.746 322.506C188.464 322.175 188.298 321.761 188.274 321.328V321.328Z" fill="white"/>
<path opacity="0.5" d="M175.116 320.44C174.971 320.439 174.827 320.409 174.694 320.35C174.574 320.296 174.466 320.218 174.376 320.121C174.286 320.025 174.216 319.912 174.17 319.788C174.124 319.665 174.104 319.534 174.109 319.403C174.114 319.271 174.146 319.142 174.202 319.023C175.326 316.484 177.065 314.259 179.264 312.548C181.463 310.837 184.054 309.691 186.806 309.214C187.073 309.162 187.349 309.218 187.574 309.368C187.8 309.519 187.955 309.752 188.007 310.017C188.059 310.282 188.003 310.556 187.851 310.78C187.7 311.003 187.465 311.158 187.198 311.209C184.754 311.615 182.452 312.622 180.501 314.139C178.55 315.655 177.013 317.633 176.031 319.891C175.946 320.059 175.815 320.199 175.653 320.296C175.491 320.394 175.305 320.443 175.116 320.44V320.44Z" fill="white"/>
<path opacity="0.5" d="M173.297 327.515C173.03 327.515 172.775 327.41 172.586 327.223C172.398 327.036 172.292 326.782 172.292 326.517C172.377 325.081 172.623 323.658 173.026 322.276C173.098 322.021 173.269 321.804 173.502 321.674C173.734 321.544 174.01 321.511 174.267 321.583C174.524 321.654 174.742 321.824 174.873 322.055C175.004 322.286 175.038 322.56 174.966 322.815C174.61 324.042 174.387 325.303 174.302 326.577C174.287 326.831 174.174 327.07 173.987 327.244C173.8 327.419 173.553 327.516 173.297 327.515V327.515Z" fill="white"/>
<path d="M95.2174 180.622C94.151 180.622 93.1284 180.202 92.3744 179.453C91.6204 178.705 91.1968 177.689 91.1968 176.631V152.681C91.1968 151.622 91.6204 150.607 92.3744 149.858C93.1284 149.11 94.151 148.689 95.2174 148.689C96.2837 148.689 97.3063 149.11 98.0603 149.858C98.8143 150.607 99.2379 151.622 99.2379 152.681V176.631C99.2379 177.689 98.8143 178.705 98.0603 179.453C97.3063 180.202 96.2837 180.622 95.2174 180.622Z" fill="#213346"/>
<path d="M95.328 223.782C94.2616 223.782 93.239 223.362 92.485 222.613C91.731 221.864 91.3074 220.849 91.3074 219.79V195.841C91.3074 194.782 91.731 193.767 92.485 193.018C93.239 192.269 94.2616 191.849 95.328 191.849C96.3943 191.849 97.4169 192.269 98.1709 193.018C98.9249 193.767 99.3485 194.782 99.3485 195.841V219.79C99.3485 220.849 98.9249 221.864 98.1709 222.613C97.4169 223.362 96.3943 223.782 95.328 223.782Z" fill="#213346"/>
</svg>
